HIERARCHY
ROOT Hips
{
 OFFSET 0.000000 0.000000 0.000000
 CHANNELS 6 Xposition Yposition Zposition Yrotation Xrotation Zrotation
 JOINT Chest
 {
  OFFSET 0.000000 12.953391 -0.028419
  CHANNELS 3 Yrotation Xrotation Zrotation
  JOINT Chest2
  {
   OFFSET 0.000000 10.280254 0.051622
   CHANNELS 3 Yrotation Xrotation Zrotation
   JOINT Chest3
   {
    OFFSET 0.000000 9.287180 0.000000
    CHANNELS 3 Yrotation Xrotation Zrotation
    JOINT Chest4
    {
     OFFSET 0.000000 9.287180 0.000000
     CHANNELS 3 Yrotation Xrotation Zrotation
     JOINT Neck
     {
      OFFSET 0.000000 13.296264 0.000000
      CHANNELS 3 Yrotation Xrotation Zrotation
      JOINT Head
      {
       OFFSET 0.000000 8.959264 0.099003
       CHANNELS 3 Yrotation Xrotation Zrotation
       End Site
       {
        OFFSET 0.000000 17.121337 0.039303
       }
      }
     }
     JOINT RightCollar
     {
      OFFSET -3.193511 7.451388 0.000000
      CHANNELS 3 Yrotation Xrotation Zrotation
      JOINT RightShoulder
      {
       OFFSET -15.792092 0.000000 0.000000
       CHANNELS 3 Yrotation Xrotation Zrotation
       JOINT RightElbow
       {
        OFFSET -31.151839 0.000000 0.000000
        CHANNELS 3 Yrotation Xrotation Zrotation
        JOINT RightWrist
        {
         OFFSET -25.536298 0.000000 0.002321
         CHANNELS 3 Yrotation Xrotation Zrotation
         End Site
         {
          OFFSET -19.133213 0.000000 0.000000
         }
        }
       }
      }
     }
     JOINT LeftCollar
     {
      OFFSET 3.193511 7.451388 0.000000
      CHANNELS 3 Yrotation Xrotation Zrotation
      JOINT LeftShoulder
      {
       OFFSET 15.792092 0.000000 0.000000
       CHANNELS 3 Yrotation Xrotation Zrotation
       JOINT LeftElbow
       {
        OFFSET 31.151839 0.000000 0.000000
        CHANNELS 3 Yrotation Xrotation Zrotation
        JOINT LeftWrist
        {
         OFFSET 25.536298 0.000000 0.002321
         CHANNELS 3 Yrotation Xrotation Zrotation
         End Site
         {
          OFFSET 19.133213 0.000000 0.000000
         }
        }
       }
      }
     }
    }
   }
  }
 }
 JOINT RightHip
 {
  OFFSET -10.745749 0.139252 0.014209
  CHANNELS 3 Yrotation Xrotation Zrotation
  JOINT RightKnee
  {
   OFFSET 0.000000 -43.743899 -0.006071
   CHANNELS 3 Yrotation Xrotation Zrotation
   JOINT RightAnkle
   {
    OFFSET 0.000000 -43.214199 0.089931
    CHANNELS 3 Yrotation Xrotation Zrotation
    JOINT RightToe
    {
     OFFSET 0.000000 -9.699830 19.151588
     CHANNELS 3 Yrotation Xrotation Zrotation
     End Site
     {
      OFFSET 0.000000 -1.292898 4.893873
     }
    }
   }
  }
 }
 JOINT LeftHip
 {
  OFFSET 10.745749 0.139252 0.014209
  CHANNELS 3 Yrotation Xrotation Zrotation
  JOINT LeftKnee
  {
   OFFSET 0.000000 -43.743899 -0.006071
   CHANNELS 3 Yrotation Xrotation Zrotation
   JOINT LeftAnkle
   {
    OFFSET 0.000000 -43.214199 0.089931
    CHANNELS 3 Yrotation Xrotation Zrotation
    JOINT LeftToe
    {
     OFFSET 0.000000 -9.699830 19.151588
     CHANNELS 3 Yrotation Xrotation Zrotation
     End Site
     {
      OFFSET 0.000000 -1.292898 4.893873
     }
    }
   }
  }
 }
}
MOTION
Frames: 12
Frame Time: 0.016667
-70.754371 99.265685 -48.308471 96.643146 -13.328011 5.869801 -4.061966 12.690530 1.963973 -1.847909 5.623015 0.979070 -1.847909 5.623015 0.979070 -1.393855 4.214363 0.750770 -13.440915 18.669099 4.513481 -26.001773 0.568288 12.359244 9.930234 4.648342 9.057533 8.258823 -22.445170 63.149423 8.892693 5.754844 -6.105352 -11.053055 21.507984 -57.687150 -2.595635 -4.212021 -9.848024 -13.735941 0.275215 -76.829130 -18.517177 -12.365664 5.949253 8.062495 20.849377 12.471430 -5.033417 18.802055 -3.358488 -1.649156 0.089591 0.113922 -21.423414 -6.382477 1.595032 0.000000 0.000000 0.000000 17.646990 5.586608 9.308458 0.371118 16.379222 -0.283356 -2.048319 -2.283442 -9.414398 0.000000 0.000000 0.000000
-70.917902 99.290661 -48.503842 96.874240 -13.190489 5.861195 -4.116511 12.626868 1.952420 -1.871512 5.594579 0.974946 -1.871507 5.594575 0.974944 -1.411464 4.193006 0.747814 -13.451560 18.734515 4.490229 -26.003109 0.683956 12.305845 9.861783 4.728878 9.185276 8.430602 -22.420635 63.054197 8.740743 5.676463 -6.178843 -10.866049 21.727157 -58.274957 -2.599206 -4.092946 -9.818760 -13.775153 0.218200 -76.874535 -18.661999 -12.365865 6.097768 8.040443 21.037313 12.369696 -5.039307 18.552762 -3.450294 -1.928061 0.140700 0.148708 -21.371318 -6.239541 1.599164 -0.000000 -0.000000 0.000000 17.640798 5.511720 9.169869 1.058284 16.269315 -0.035899 -1.577954 -2.554525 -9.029875 0.000000 0.000000 0.000000
-71.081433 99.315636 -48.699212 97.105183 -13.052935 5.853164 -4.171043 12.563207 1.940844 -1.895131 5.566160 0.970799 -1.895128 5.566157 0.970798 -1.429095 4.171669 0.744841 -13.462139 18.799961 4.467050 -26.004311 0.799658 12.252515 9.793679 4.809468 9.313099 8.602210 -22.395647 62.958792 8.588868 5.597627 -6.251645 -10.682667 21.946186 -58.864446 -2.602586 -3.973908 -9.789347 -13.814470 0.161274 -76.919921 -18.806983 -12.365725 6.246129 8.017970 21.225152 12.267629 -5.045211 18.303792 -3.542971 -2.206886 0.192467 0.182922 -21.319054 -6.096662 1.603294 -0.000000 0.000000 0.000000 17.634545 5.437333 9.031013 1.744409 16.155049 0.208511 -1.109574 -2.834811 -8.651396 0.000000 -0.000000 -0.000000
-71.247019 99.337758 -48.902482 97.374118 -12.936104 5.830251 -4.216536 12.511337 1.925218 -1.914684 5.543062 0.964702 -1.914684 5.543062 0.964702 -1.443669 4.154338 0.740384 -13.480600 18.858673 4.455745 -26.024462 0.907775 12.224236 9.725571 4.883107 9.433043 8.734170 -22.348370 62.898152 8.467060 5.535143 -6.312707 -10.509326 22.173179 -59.452669 -2.603461 -3.870473 -9.757746 -13.868943 0.096375 -76.947176 -18.925399 -12.382525 6.398457 8.011062 21.396764 12.187103 -5.050457 18.079070 -3.626217 -2.480305 0.237346 0.209239 -21.309510 -5.953346 1.617025 0.000000 0.000000 0.000000 17.593172 5.345750 8.943777 2.321901 16.118745 0.419823 -0.715732 -3.040445 -8.252312 0.000000 0.000000 0.000000
-71.414831 99.355841 -49.114519 97.695947 -12.850270 5.784871 -4.249244 12.479134 1.904951 -1.928511 5.528797 0.956364 -1.928513 5.528796 0.956364 -1.453940 4.143643 0.734219 -13.511578 18.907043 4.462027 -26.074294 1.004257 12.233256 9.657353 4.941663 9.542703 8.811672 -22.270108 62.883941 8.380540 5.502286 -6.360955 -10.357665 22.431894 -60.097786 -2.600851 -3.792800 -9.721861 -13.958607 0.017520 -76.945870 -18.994597 -12.422703 6.555008 8.027431 21.555751 12.126182 -5.051647 17.890621 -3.693027 -2.744900 0.270159 0.224112 -21.364190 -5.808072 1.641664 -0.000000 -0.000000 0.000000 17.476144 5.231480 8.930061 2.745886 16.198192 0.583382 -0.428064 -3.112216 -7.814238 0.000000 0.000000 0.000000
-71.584698 99.371071 -49.334455 98.055752 -12.784819 5.724472 -4.272971 12.458850 1.880575 -1.938287 5.519903 0.946065 -1.938289 5.519901 0.946066 -1.461163 4.136987 0.726563 -13.550284 18.948746 4.480293 -26.142795 1.093387 12.267298 9.589236 4.993139 9.644705 8.849848 -22.170116 62.904820 8.323890 5.486019 -6.397825 -10.219674 22.698268 -60.743588 -2.595656 -3.730886 -9.683679 -14.063568 -0.069175 -76.926645 -19.037891 -12.480015 6.715737 8.059868 21.698667 12.087429 -5.052389 17.726419 -3.750546 -3.004115 0.296090 0.231280 -21.461436 -5.662106 1.675625 0.000000 0.000000 -0.000000 17.324125 5.099252 8.968025 3.062918 16.359073 0.718663 -0.211629 -3.105949 -7.349852 0.000000 -0.000000 -0.000000
-71.758155 99.384152 -49.567587 98.446910 -12.729104 5.656195 -4.290051 12.438903 1.849640 -1.944950 5.511256 0.932689 -1.944950 5.511256 0.932689 -1.466023 4.130538 0.716573 -13.590464 18.987947 4.505420 -26.216317 1.180043 12.314588 9.521477 5.054691 9.738774 8.854290 -22.053739 62.961305 8.311182 5.463870 -6.416184 -10.069096 22.909526 -61.214301 -2.588299 -3.670079 -9.647149 -14.138977 -0.153707 -76.903179 -19.097915 -12.552617 6.884170 8.102146 21.798814 12.099567 -5.062570 17.574387 -3.809768 -3.262891 0.323175 0.234422 -21.579347 -5.519079 1.724138 0.000000 0.000000 0.000000 17.223924 4.946450 9.043457 3.303486 16.576288 0.848986 -0.038705 -3.110344 -6.878396 0.000000 0.000000 0.000000
-71.935906 99.395910 -49.815006 98.869176 -12.679590 5.584437 -4.299371 12.416579 1.809938 -1.947950 5.501666 0.915211 -1.947951 5.501670 0.915211 -1.468103 4.123401 0.703472 -13.630757 19.024474 4.538746 -26.292799 1.263955 12.377185 9.454257 5.137102 9.821628 8.814337 -21.917872 63.063579 8.380503 5.420346 -6.417317 -9.888752 23.015937 -61.397501 -2.579401 -3.608634 -9.614825 -14.167724 -0.236274 -76.875643 -19.186920 -12.636646 7.060290 8.153771 21.841347 12.181327 -5.079777 17.431679 -3.873599 -3.527507 0.352664 0.234045 -21.713430 -5.380362 1.789447 0.000000 -0.000000 0.000000 17.199650 4.770372 9.149674 3.443278 16.847609 0.983303 0.065681 -3.150347 -6.406900 -0.000000 0.000000 0.000000
-72.117246 99.405518 -50.075620 99.322832 -12.639564 5.504698 -4.302078 12.394806 1.763579 -1.947857 5.492403 0.894616 -1.947858 5.492404 0.894617 -1.467838 4.116515 0.688010 -13.672501 19.058474 4.578943 -26.374317 1.345433 12.452987 9.387704 5.229638 9.896876 8.741794 -21.765808 63.201750 8.493990 5.371347 -6.400893 -9.689084 23.067955 -61.403220 -2.568275 -3.548371 -9.584022 -14.167071 -0.317131 -76.844251 -19.293653 -12.735667 7.243797 8.213943 21.841005 12.313815 -5.106404 17.301251 -3.939050 -3.791650 0.383447 0.229707 -21.868090 -5.244367 1.869202 0.000000 0.000000 0.000000 17.226829 4.572833 9.291902 3.506762 17.174997 1.114465 0.127358 -3.200332 -5.928649 -0.000000 0.000000 0.000000
-72.301604 99.411199 -50.351446 99.802025 -12.608605 5.410840 -4.303903 12.370437 1.714492 -1.947297 5.482017 0.872769 -1.947297 5.482017 0.872769 -1.467210 4.108794 0.671599 -13.713495 19.094591 4.616904 -26.453406 1.430112 12.524039 9.321954 5.317172 9.974468 8.675578 -21.612549 63.346064 8.552075 5.341409 -6.356486 -9.483433 23.153799 -61.388515 -2.553275 -3.479988 -9.550686 -14.143534 -0.386371 -76.822611 -19.425649 -12.858770 7.437498 8.275867 21.815417 12.469101 -5.159486 17.179773 -4.008158 -4.041329 0.419992 0.223663 -22.034785 -5.110369 1.961862 0.000000 -0.000000 0.000000 17.319291 4.357758 9.473191 3.597897 17.538784 1.242347 0.249096 -3.276833 -5.445156 0.000000 -0.000000 0.000000
-72.488230 99.412905 -50.642852 100.305613 -12.586162 5.302157 -4.307994 12.341131 1.662452 -1.947654 5.469456 0.849632 -1.947653 5.469457 0.849631 -1.467255 4.099447 0.654223 -13.752269 19.134191 4.648186 -26.525892 1.518960 12.581654 9.256864 5.394845 10.055823 8.630477 -21.458804 63.487639 8.520529 5.314208 -6.273677 -9.264477 23.329799 -61.411190 -2.531808 -3.395604 -9.514084 -14.092587 -0.439403 -76.818832 -19.604365 -13.021165 7.651926 8.340685 21.760448 12.651874 -5.252660 17.064392 -4.085464 -4.268675 0.466079 0.218017 -22.207339 -4.979379 2.065974 0.000000 -0.000000 0.000000 17.496396 4.122894 9.696422 3.716105 17.936390 1.369510 0.441684 -3.400843 -4.980667 0.000000 -0.000000 -0.000000
-72.677873 99.410683 -50.949470 100.834811 -12.572293 5.179149 -4.311218 12.309358 1.607564 -1.947559 5.455827 0.825193 -1.947558 5.455825 0.825193 -1.466951 4.089299 0.635866 -13.790226 19.175952 4.677269 -26.595858 1.611011 12.634542 9.192516 5.467489 10.139443 8.591895 -21.304248 63.635451 8.434476 5.306328 -6.161416 -9.040238 23.539879 -61.414349 -2.506206 -3.303310 -9.474604 -14.018554 -0.480916 -76.824530 -19.809722 -13.207139 7.875895 8.405276 21.680253 12.857045 -5.372238 16.958062 -4.166124 -4.481467 0.517902 0.210796 -22.391856 -4.850177 2.182933 0.000000 -0.000000 0.000000 17.737981 3.868220 9.956719 3.862670 18.370038 1.497688 0.694565 -3.555828 -4.514853 0.000000 0.000000 0.000000
